<?xml version="1.0" standalone="no"?><!DOCTYPE svg PUBLIC "-//W3C//DTD SVG 1.1//EN" "http://www.w3.org/Graphics/SVG/1.1/DTD/svg11.dtd"><svg t="1631606032431" class="icon" viewBox="0 0 1024 1024" version="1.1" xmlns="http://www.w3.org/2000/svg" p-id="2209" xmlns:xlink="http://www.w3.org/1999/xlink" width="252" height="252"><defs><style type="text/css"></style></defs><path d="M0.234057 508.679314C0.234057 789.562514 227.913143 1017.270857 508.781714 1017.270857c280.868571 0 508.576914-227.693714 508.576915-508.576914 0-280.868571-227.693714-508.562286-508.576915-508.562286C227.927771 0.117029 0.234057 227.810743 0.234057 508.679314z" fill="#EBF2FF" p-id="2210"></path><path d="M511.956114 471.157029c137.5232 0 248.188343-46.533486 248.188343-103.394743 0-10.357029-3.101257-19.646171-10.357028-28.964572-3.101257-4.139886-6.217143-7.255771-9.3184-11.381028a27.413943 27.413943 0 0 0-6.187886-5.163886c-2.048-2.048-5.163886-4.139886-8.265143-6.217143-2.048-1.024-4.139886-3.101257-6.217143-4.139886-4.139886-3.101257-9.303771-5.149257-13.429028-8.265142-9.333029-5.163886-20.670171-9.3184-32.0512-14.453029a316.942629 316.942629 0 0 0-37.244343-11.381029c-8.265143-2.077257-17.554286-4.125257-26.887315-6.217142A530.695314 530.695314 0 0 0 536.795429 263.314286c-8.265143 1.024-16.574171 1.024-24.839315 1.024s-16.530286 0-25.834057 1.053257c-25.863314 1.024-50.673371 4.139886-73.4208 8.279771-9.333029 2.048-18.622171 3.101257-26.887314 5.149257-12.405029 3.115886-24.810057 6.217143-36.191086 10.357029-11.3664 4.139886-20.670171 8.265143-29.988571 12.405029-3.115886 2.048-7.241143 4.139886-10.327772 6.217142-10.3424 6.187886-18.651429 12.405029-25.863314 19.602286a82.549029 82.549029 0 0 0-12.434286 15.550172 45.728914 45.728914 0 0 0-7.211885 24.810057c0 56.890514 110.665143 103.394743 248.159085 103.394743z" fill="#ABC6F6" p-id="2211"></path><path d="M511.956114 512.526629c-97.1776 0-194.384457-22.747429-248.159085-66.208915v66.208915c0 56.890514 110.665143 103.394743 248.159085 103.394742 137.5232 0 248.188343-46.533486 248.188343-103.394742V446.317714c-53.774629 43.446857-150.981486 66.208914-248.188343 66.208915zM336.164571 553.866971a20.728686 20.728686 0 0 1-20.670171-20.670171c0-11.3664 9.333029-20.670171 20.670171-20.670171 11.381029 0 20.699429 9.303771 20.699429 20.670171 0 11.381029-9.3184 20.670171-20.699429 20.670171z" fill="#377FFC" p-id="2212"></path><path d="M511.956114 657.290971c-97.1776 0-194.384457-22.747429-248.159085-66.208914v76.536686h1.024C277.255314 720.369371 382.698057 760.685714 511.956114 760.685714c129.258057 0 234.730057-40.316343 247.135086-93.066971h1.053257v-76.507429c-53.774629 43.432229-150.981486 66.179657-248.188343 66.179657zM336.164571 698.631314a20.728686 20.728686 0 0 1-20.670171-20.670171c0-11.3664 9.333029-20.670171 20.670171-20.670172 11.381029 0 20.699429 9.303771 20.699429 20.670172 0 11.381029-9.3184 20.670171-20.699429 20.670171z" fill="#377FFC" p-id="2213"></path></svg>