<?xml version="1.0" standalone="no"?><!DOCTYPE svg PUBLIC "-//W3C//DTD SVG 1.1//EN" "http://www.w3.org/Graphics/SVG/1.1/DTD/svg11.dtd"><svg t="1631757273635" class="icon" viewBox="0 0 1039 1024" version="1.1" xmlns="http://www.w3.org/2000/svg" p-id="2171" xmlns:xlink="http://www.w3.org/1999/xlink" width="255.69140625" height="252"><defs><style type="text/css"></style></defs><path d="M308.549906 904.436911c-21.212806 0-38.568738-19.284369-38.568738-42.425612V410.757062c0-23.141243 17.355932-42.425612 38.568738-42.425612s38.568738 19.284369 38.568738 42.425612v451.254237c0 23.141243-17.355932 42.425612-38.568738 42.425612z" fill="#DE8B12" p-id="2172"></path><path d="M725.092279 935.291902H250.696798c-84.851224 0-154.274953-69.423729-154.274952-154.274953v-289.265537c0-84.851224 69.423729-154.274953 154.274952-154.274952h208.271187c21.212806 0 38.568738 17.355932 38.568738 38.568738s-17.355932 38.568738-38.568738 38.568738H250.696798c-42.425612 0-77.137476 34.711864-77.137476 77.137476v289.265537c0 42.425612 34.711864 77.137476 77.137476 77.137477h487.894539c1.928437-3.856874 7.713748-13.499058 13.499058-46.282486 0-1.928437 0-3.856874 1.928437-5.785311L867.79661 485.966102c-3.856874-40.497175-36.640301-71.352166-77.137476-71.352166h-48.210923c-21.212806 0-38.568738-17.355932-38.568738-38.568738s17.355932-38.568738 38.568738-38.568738H790.659134c84.851224 0 154.274953 69.423729 154.274953 154.274952 0 3.856874 0 9.642185-1.928437 13.499059l-115.706215 325.905838c-15.427495 79.065913-40.497175 104.135593-102.207156 104.135593z" fill="#4282C4" p-id="2173"></path><path d="M732.806026 414.613936c-21.212806 0-38.568738-17.355932-38.568738-38.568738v-115.706215c0-53.996234-42.425612-96.421846-96.421845-96.421846s-96.421846 42.425612-96.421846 96.421846v115.706215c0 21.212806-17.355932 38.568738-38.568738 38.568738s-38.568738-17.355932-38.568738-38.568738v-115.706215c0-96.421846 77.137476-173.559322 173.559322-173.559322s173.559322 77.137476 173.559322 173.559322v115.706215c0 21.212806-17.355932 38.568738-38.568739 38.568738z" fill="#4282C4" p-id="2174"></path></svg>